<svg width="24" height="24" viewBox="0 0 24 24" fill="none" xmlns="http://www.w3.org/2000/svg">
<mask id="mask0_4_3570" style="mask-type:alpha" maskUnits="userSpaceOnUse" x="0" y="0" width="24" height="24">
<rect width="23.6252" height="23.6252" fill="#D9D9D9"/>
</mask>
<g mask="url(#mask0_4_3570)">
<path d="M0.492218 13.1169L0.98441 11.1481H6.39852L5.90633 13.1169H0.492218ZM4.7989 18.8263C4.22467 18.2521 3.93756 17.5548 3.93756 16.7345H1.4766L1.96879 14.5935H7.06298L7.94893 11.0005H10.0161L11.2466 6.07853H4.42975L4.57741 5.4879C4.67585 5.02853 4.90144 4.65528 5.25418 4.36817C5.60691 4.08106 6.02117 3.9375 6.49696 3.9375H17.7189L16.8084 7.87504H19.6877L22.6409 11.8126L21.6565 16.7345H19.6877C19.6877 17.5548 19.4006 18.2521 18.8264 18.8263C18.2521 19.4005 17.5549 19.6876 16.7346 19.6876C15.9142 19.6876 15.217 19.4005 14.6427 18.8263C14.0685 18.2521 13.7814 17.5548 13.7814 16.7345H9.84386C9.84386 17.5548 9.55675 18.2521 8.98253 18.8263C8.40831 19.4005 7.71103 19.6876 6.89071 19.6876C6.07039 19.6876 5.37312 19.4005 4.7989 18.8263ZM2.46099 9.52388L2.95318 7.55511H9.35167L8.85948 9.52388H2.46099ZM6.89071 17.7189C7.16962 17.7189 7.40341 17.6245 7.59209 17.4359C7.78076 17.2472 7.8751 17.0134 7.8751 16.7345C7.8751 16.4556 7.78076 16.2218 7.59209 16.0331C7.40341 15.8444 7.16962 15.7501 6.89071 15.7501C6.6118 15.7501 6.37801 15.8444 6.18934 16.0331C6.00067 16.2218 5.90633 16.4556 5.90633 16.7345C5.90633 17.0134 6.00067 17.2472 6.18934 17.4359C6.37801 17.6245 6.6118 17.7189 6.89071 17.7189ZM16.7346 17.7189C17.0135 17.7189 17.2473 17.6245 17.4359 17.4359C17.6246 17.2472 17.7189 17.0134 17.7189 16.7345C17.7189 16.4556 17.6246 16.2218 17.4359 16.0331C17.2473 15.8444 17.0135 15.7501 16.7346 15.7501C16.4556 15.7501 16.2219 15.8444 16.0332 16.0331C15.8445 16.2218 15.7502 16.4556 15.7502 16.7345C15.7502 17.0134 15.8445 17.2472 16.0332 17.4359C16.2219 17.6245 16.4556 17.7189 16.7346 17.7189ZM15.6763 12.797H20.426L20.5244 12.2802L18.7033 9.8438H16.3654L15.6763 12.797Z" fill="white"/>
</g>
</svg>
