<svg width="21" height="21" viewBox="0 0 21 21" fill="none" xmlns="http://www.w3.org/2000/svg">
<mask id="mask0_4_3564" style="mask-type:alpha" maskUnits="userSpaceOnUse" x="0" y="0" width="21" height="21">
<rect width="20.8826" height="20.8826" fill="#D9D9D9"/>
</mask>
<g mask="url(#mask0_4_3564)">
<path d="M18.294 9.61496V16.5323C18.294 17.0109 18.1236 17.4205 17.7828 17.7613C17.442 18.1021 17.0324 18.2725 16.5538 18.2725H4.37229C3.89373 18.2725 3.48406 18.1021 3.14327 17.7613C2.80248 17.4205 2.63208 17.0109 2.63208 16.5323V9.61496C2.29854 9.31042 2.04113 8.91887 1.85986 8.44031C1.67859 7.96175 1.67496 7.43969 1.84898 6.87412L2.7626 3.91576C2.87861 3.53871 3.08526 3.22692 3.38255 2.98039C3.67983 2.73386 4.02425 2.6106 4.4158 2.6106H16.5103C16.9018 2.6106 17.2426 2.73024 17.5327 2.96951C17.8227 3.20879 18.033 3.52421 18.1635 3.91576L19.0771 6.87412C19.2511 7.43969 19.2475 7.9545 19.0662 8.41856C18.885 8.88262 18.6275 9.28142 18.294 9.61496ZM12.3773 8.70134C12.7688 8.70134 13.0661 8.5672 13.2691 8.29892C13.4722 8.03064 13.5519 7.72973 13.5084 7.39618L13.0299 4.35081H11.3331V7.57021C11.3331 7.87474 11.4347 8.1394 11.6377 8.36418C11.8407 8.58896 12.0872 8.70134 12.3773 8.70134ZM8.4618 8.70134C8.79534 8.70134 9.06725 8.58896 9.27752 8.36418C9.4878 8.1394 9.59294 7.87474 9.59294 7.57021V4.35081H7.89623L7.41767 7.39618C7.35966 7.74423 7.4358 8.04876 7.64607 8.3098C7.85635 8.57083 8.12826 8.70134 8.4618 8.70134ZM4.58982 8.70134C4.85085 8.70134 5.07926 8.60708 5.27503 8.41856C5.4708 8.23004 5.59044 7.99076 5.63395 7.70072L6.11251 4.35081H4.4158L3.54569 7.26567C3.45868 7.5557 3.50581 7.86749 3.68708 8.20103C3.86836 8.53457 4.16927 8.70134 4.58982 8.70134ZM16.3363 8.70134C16.7568 8.70134 17.0614 8.53457 17.2499 8.20103C17.4384 7.86749 17.4819 7.5557 17.3804 7.26567L16.4668 4.35081H14.8136L15.2921 7.70072C15.3356 7.99076 15.4553 8.23004 15.6511 8.41856C15.8468 8.60708 16.0752 8.70134 16.3363 8.70134Z" fill="white"/>
</g>
</svg>
