<svg width="33" height="44" viewBox="0 0 33 44" fill="none" xmlns="http://www.w3.org/2000/svg">
<g clip-path="url(#clip0_365_4479)">
<path d="M17.8974 41.191C17.9985 42.1964 18.7352 42.7771 19.573 42.7771C20.2273 42.7771 20.6874 42.5093 21.074 42.1042L21.5164 42.5005C21.0376 43.036 20.4569 43.3959 19.5553 43.3959C18.2476 43.3959 17.1784 42.3897 17.1784 40.9046C17.1784 39.5207 18.1456 38.4134 19.4631 38.4134C20.8718 38.4134 21.6822 39.5393 21.6822 40.9419C21.6822 41.0057 21.6822 41.0802 21.6724 41.191H17.8974ZM12.6196 43.2851H11.9104V37.0755H12.6196V39.4746C13.0062 38.9028 13.5683 38.4134 14.4433 38.4134C15.5852 38.4134 16.7182 39.3177 16.7182 40.886V40.9046C16.7182 42.4641 15.595 43.3862 14.4433 43.3862C13.5594 43.3862 12.9884 42.9065 12.6196 42.371V43.2851ZM4.31245 43.2851H3.61295V42.5741C3.28137 42.9987 2.7379 43.3862 1.90009 43.3862C1.00642 43.3862 0.122513 42.879 0.122513 41.9012V41.8825C0.122513 40.8585 0.951457 40.3231 2.15808 40.3231C2.76538 40.3231 3.18916 40.4064 3.61295 40.5261V40.3789C3.61295 39.5296 3.09696 39.0872 2.2033 39.0872C1.6421 39.0872 1.1997 39.2255 0.758185 39.4285L0.546294 38.8469C1.07114 38.6075 1.57738 38.4418 2.27777 38.4418C2.94979 38.4418 3.47464 38.6262 3.81597 38.9666C4.14666 39.2991 4.31245 39.761 4.31245 40.3692V43.2851ZM9.09285 43.2851H8.39245V42.5741C8.06088 42.9987 7.51829 43.3862 6.6796 43.3862C5.78682 43.3862 4.90202 42.879 4.90202 41.9012V41.8825C4.90202 40.8585 5.73097 40.3231 6.93759 40.3231C7.54489 40.3231 7.96867 40.4064 8.39245 40.5261V40.3789C8.39245 39.5296 7.87647 39.0872 6.98369 39.0872C6.42161 39.0872 5.98009 39.2255 5.53769 39.4285L5.3258 38.8469C5.85065 38.6075 6.35689 38.4418 7.05728 38.4418C7.7293 38.4418 8.25415 38.6262 8.59548 38.9666C8.92706 39.2991 9.09285 39.761 9.09285 40.3692V43.2851ZM29.0593 42.676L29.4184 42.168C29.9344 42.5563 30.5053 42.7771 31.0674 42.7771C31.6384 42.7771 32.0524 42.4819 32.0524 42.0208V42.0022C32.0524 41.5226 31.4903 41.3382 30.8644 41.1626C30.1188 40.9508 29.2898 40.6919 29.2898 39.8159V39.7973C29.2898 38.9764 29.9707 38.432 30.9105 38.432C31.4903 38.432 32.1348 38.635 32.6233 38.9577L32.3006 39.4932C31.8591 39.2069 31.352 39.0322 30.8919 39.0322C30.3298 39.0322 29.9707 39.3274 29.9707 39.7237V39.7424C29.9707 40.1945 30.5603 40.3692 31.196 40.5633C31.9327 40.785 32.7244 41.0704 32.7244 41.9286V41.9473C32.7244 42.8516 31.9788 43.3773 31.0302 43.3773C30.3484 43.3773 29.593 43.1096 29.0593 42.676ZM27.061 38.5153H28.5708V39.1421H27.061V41.9286C27.061 42.5093 27.3828 42.7221 27.8625 42.7221C28.1018 42.7221 28.304 42.676 28.5531 42.5563V43.1645C28.304 43.294 28.0371 43.3675 27.6958 43.3675C26.9316 43.3675 26.3517 42.9899 26.3517 42.0208V39.1421H25.6886V38.5153H26.3517V37.0755H27.061V38.5153ZM10.8155 43.2851H10.1062V37.0755H10.8155V43.2851ZM23.0821 43.2842H22.3728V38.5153H23.0821V39.7601C23.4323 38.9666 24.1229 38.3948 25.0254 38.432V39.198H24.9705C23.9296 39.198 23.0821 39.9454 23.0821 41.3843V43.2842ZM3.62181 41.5323V41.0891C3.2725 40.988 2.81148 40.886 2.23167 40.886C1.34687 40.886 0.840636 41.2735 0.840636 41.8462V41.8639C0.840636 42.4641 1.39386 42.8143 2.03839 42.8143C2.91255 42.8143 3.62181 42.2886 3.62181 41.5323ZM8.40221 41.5323V41.0891C8.05201 40.988 7.59099 40.886 7.01118 40.886C6.12726 40.886 5.62014 41.2735 5.62014 41.8462V41.8639C5.62014 42.4641 6.17337 42.8143 6.8179 42.8143C7.69295 42.8143 8.40221 42.2886 8.40221 41.5323ZM15.9904 40.9135V40.8949C15.9904 39.7698 15.2164 39.0499 14.3139 39.0499C13.43 39.0499 12.5921 39.7973 12.5921 40.886V40.9046C12.5921 42.012 13.43 42.7496 14.3139 42.7496C15.235 42.7496 15.9904 42.0669 15.9904 40.9135ZM20.964 40.6183C20.8807 39.7512 20.3833 39.0136 19.4445 39.0136C18.6244 39.0136 17.9985 39.6962 17.8974 40.6183H20.964ZM32.7173 35.3343H26.412V26.2248H19.425L23.4722 20.1952H26.412V11.3694L10.7206 35.3343H3.03756L9.15757 26.2248H3.04554L5.04742 23.2566C5.04742 23.2566 6.93848 20.1979 10.1124 20.1979H13.1968L24.6868 3.06045C24.6868 3.06045 26.5796 0 29.7562 0H32.7173V35.3343Z" fill="white"/>
</g>
<defs>
<clipPath id="clip0_365_4479">
<rect width="32.8032" height="43.442" fill="white"/>
</clipPath>
</defs>
</svg>
