<svg width="102" height="24" viewBox="0 0 102 24" fill="none" xmlns="http://www.w3.org/2000/svg">
<g clip-path="url(#clip0_96_5288)">
<path d="M18.8765 15.6392H21.1141V8.85502C21.1141 6.64125 20.6142 5.02258 17.4721 5.02258C14.2586 5.02258 13.5206 6.59365 13.2826 8.06949H15.9248C15.9248 7.09353 16.0201 5.78431 17.4721 5.78431C18.8765 5.78431 18.8765 7.35537 18.8765 8.75981V9.9024C17.4483 9.95001 13.0208 10.188 13.0208 13.354C13.0208 14.6632 14.2586 15.9248 15.9962 15.9248C17.7101 15.9248 18.4719 14.8298 18.8765 14.3537V15.6392ZM18.8765 11.9733C18.8765 13.4968 18.091 14.687 16.8056 14.687C15.9724 14.687 15.4726 13.9729 15.4726 12.9493C15.4726 10.8308 18.0672 10.7117 18.8765 10.6879V11.9733Z" fill="white"/>
<path d="M25.8511 15.6392H28.0887V10.3071C28.0887 8.736 28.7314 6.97451 30.9928 6.97451C31.3736 6.97451 31.7783 7.14114 32.1353 7.23635V5.1178C31.7545 5.04639 31.326 4.99878 30.9213 4.99878C29.136 4.99878 28.4457 6.9269 28.1363 7.95047H28.0887V5.02258L24.1134 5.7367V6.18898C25.5178 6.23659 25.8749 6.61745 25.8749 8.18851V15.6392H25.8511Z" fill="white"/>
<path d="M35.4679 15.6392H37.7054V10.188C37.7054 8.59318 38.6576 6.52223 40.2048 6.52223C41.7045 6.52223 41.7045 8.0933 41.7045 9.85479V15.6392H43.9421V10.4975C43.9421 8.87883 44.7514 6.54604 46.4415 6.54604C47.9411 6.54604 47.9411 8.18851 47.9411 9.56914V15.663H50.1787V9.18828C50.1787 7.59341 50.1787 4.99878 47.346 4.99878C45.3465 4.99878 44.4896 6.64125 44.0373 7.4982H43.9897C43.8231 6.49843 43.3232 4.99878 41.2522 4.99878C39.2527 4.99878 38.2291 6.87929 37.8483 7.66483H37.8006V5.02258L33.8254 5.7367V6.18898C35.1822 6.23659 35.5393 6.61745 35.5393 8.18851V15.6392H35.4679Z" fill="white"/>
<path d="M59.6289 15.6392H61.8665V8.85502C61.8665 6.64125 61.3666 5.02258 58.2007 5.02258C54.9871 5.02258 54.2492 6.59365 54.0112 8.06949H56.6534C56.6534 7.09353 56.7486 5.78431 58.2007 5.78431C59.6051 5.78431 59.6051 7.35537 59.6051 8.75981V9.9024C58.1769 9.95001 53.7493 10.188 53.7493 13.354C53.7493 14.6632 54.9871 15.9248 56.7248 15.9248C58.4387 15.9248 59.2004 14.8298 59.6051 14.3537V15.6392H59.6289ZM59.6289 11.9733C59.6289 13.4968 58.8434 14.687 57.558 14.687C56.7248 14.687 56.2249 13.9729 56.2249 12.9493C56.2249 10.8308 58.8196 10.7117 59.6289 10.6879V11.9733Z" fill="white"/>
<path d="M73.7447 14.3775C73.221 14.5442 72.2926 14.687 71.6023 14.687C69.579 14.687 68.0555 12.8779 68.0555 9.56914C68.0555 7.42679 68.3888 5.76051 69.9122 5.76051C71.2929 5.76051 71.5071 7.14114 71.5071 8.06949H74.1255C74.1255 6.26039 72.5069 4.99878 70.0312 4.99878C66.8415 4.99878 65.6037 7.23635 65.6037 10.2833C65.6037 13.6634 67.4604 15.8772 70.5787 15.8772C72.4354 15.8772 72.9353 15.6392 73.7447 15.3297V14.3775Z" fill="white"/>
<path d="M85.0277 14.3061C84.6469 14.4728 83.8613 14.687 82.933 14.687C79.7909 14.687 78.8863 11.5211 78.8863 9.2835H85.2182C85.2182 7.78384 84.9087 5.02258 81.1001 5.02258C78.1246 5.02258 76.4345 6.56984 76.4345 10.0928C76.4345 13.8301 78.4817 15.901 81.8856 15.901C83.4329 15.901 84.5993 15.4487 85.0277 15.3059V14.3061ZM78.8863 8.37894C78.8863 7.522 79.3624 5.76051 81.0287 5.76051C82.9568 5.76051 83.0044 7.85526 83.0044 8.37894H78.8863Z" fill="white"/>
<path d="M88.9317 15.6392H91.1693V0L87.2416 0.547492V0.999767C88.5509 1.07118 88.9317 1.45204 88.9317 3.02311V15.6392Z" fill="white"/>
<path d="M96.0491 15.6392H98.2867V0L94.359 0.547492V0.999767C95.6682 1.07118 96.0491 1.45204 96.0491 3.02311V15.6392Z" fill="white"/>
<path d="M99.0483 1.35683C99.0483 0.571296 99.691 0 100.429 0C101.167 0 101.81 0.571296 101.81 1.35683C101.81 2.14236 101.167 2.73746 100.429 2.73746C99.691 2.73746 99.0483 2.16616 99.0483 1.35683ZM100.429 2.52322C101.048 2.52322 101.548 2.04714 101.548 1.38063C101.548 0.737924 101.048 0.23804 100.429 0.23804C99.81 0.23804 99.3101 0.737924 99.3101 1.38063C99.3339 2.02334 99.81 2.52322 100.429 2.52322ZM100.143 2.16616H99.9052V0.571296H100.5C100.881 0.571296 101.048 0.71412 101.048 1.02357C101.048 1.30922 100.881 1.42824 100.643 1.45204L101.095 2.14236H100.834L100.405 1.45204H100.119V2.16616H100.143ZM100.429 1.26161C100.643 1.26161 100.81 1.23781 100.81 0.999767C100.81 0.809335 100.643 0.761728 100.477 0.761728H100.143V1.26161H100.429Z" fill="white"/>
<path d="M9.33109 3.92759C9.33109 3.92759 9.33109 3.90378 9.3549 3.87998C9.3787 3.80857 9.45011 3.71335 9.42631 3.97519C9.42631 3.97519 9.21207 6.66504 6.61744 7.64101C6.61744 7.64101 3.80857 8.85501 1.23774 5.97473C1.23774 5.97473 0.28558 4.78453 0.761659 3.76096C0.761659 3.76096 0.833071 3.59433 0.809267 3.78476C0.809267 3.78476 0.666443 4.64171 1.40437 5.71289C1.40437 5.71289 3.61814 8.2123 6.66505 7.14112C6.66505 7.11732 8.83121 6.42701 9.33109 3.92759Z" fill="white"/>
<path d="M5.47491 0.0714273C5.47491 0.0714273 2.11855 1.53109e-05 0.690312 3.4754C0.690312 3.4754 -0.333259 5.83199 1.07118 8.06957C1.07118 8.06957 2.16616 10.1167 4.61797 10.569C4.61797 10.569 2.14236 10.4024 0.714116 8.02196C0.714116 8.02196 -0.880751 5.52254 0.666508 2.76128C0.666508 2.76128 2.07094 -0.0475926 5.47491 0.0714273Z" fill="white"/>
<path d="M7.71249 1.38062C7.71249 1.38062 8.64085 2.18995 8.06955 3.47537C8.06955 3.47537 7.09359 5.97478 4.07048 4.80839C4.07048 4.80839 3.02311 4.2847 2.80887 3.52297C2.80887 3.52297 2.59463 2.73744 3.14213 2.30897C3.14213 2.30897 2.49942 3.35635 4.21331 4.42753C4.21331 4.42753 5.45111 5.09404 6.61751 4.59415C6.61751 4.59415 8.06955 3.95145 7.90292 2.07093C7.90292 2.07093 7.7839 1.52344 7.40304 1.3092L7.71249 1.38062Z" fill="white"/>
<path d="M6.02237 1.66625C6.02237 1.66625 5.73672 0.809305 5.6415 0.595069C5.6415 0.595069 5.59389 0.452245 5.49868 0.523657L5.37966 0.618873C5.37966 0.618873 5.35586 0.642677 5.37966 0.690285L5.76052 1.61864L6.02237 1.66625Z" fill="white"/>
<path d="M6.30801 2.61841C6.30801 2.61841 7.33158 4.9512 6.66507 8.66462C6.66507 8.66462 6.54605 9.61678 6.11758 9.7358C6.11758 9.7358 6.02236 9.78341 6.06997 9.61678C6.06997 9.61678 6.52225 7.71246 6.49844 7.18877C6.49844 7.18877 6.8317 4.80837 6.06997 2.66602L6.30801 2.61841Z" fill="white"/>
<path d="M5.18917 2.40418C5.18917 2.40418 2.02324 3.23732 1.33292 6.80791C1.33292 6.80791 1.30912 7.06976 0.999666 7.02215C0.999666 7.02215 0.928254 6.99835 0.928254 6.85552C0.928254 6.85552 0.856843 5.45109 2.09465 3.99904C2.09465 3.99904 3.38006 2.38037 5.09395 2.16614L5.18917 2.40418Z" fill="white"/>
<path d="M5.18921 1.85671C4.99878 1.7615 4.40368 1.59487 4.40368 1.59487C3.9276 1.47585 3.30869 1.47585 3.30869 1.47585C2.95163 1.47585 2.99924 1.07118 2.99924 1.07118C3.42771 0.975967 3.9276 1.11879 3.9276 1.11879C4.61791 1.26161 5.37964 1.69009 5.37964 1.69009L5.18921 1.85671Z" fill="white"/>
<path d="M6.21277 1.71387C6.21277 1.71387 6.54602 1.33301 6.92689 1.23779C6.92689 1.23779 7.16493 1.16638 7.64101 1.16638C7.64101 1.16638 7.87905 1.30921 7.92666 1.38062C7.92666 1.38062 7.85524 1.42823 7.64101 1.38062C7.64101 1.38062 7.45058 1.33301 7.06971 1.47583C7.06971 1.47583 6.66504 1.64246 6.54602 1.83289L6.45081 1.90431L6.33179 1.80909L6.21277 1.71387Z" fill="white"/>
<path d="M6.59375 2.26135C6.59375 2.26135 8.45046 3.26112 9.16458 5.11783C9.16458 5.11783 9.71207 6.54607 9.14078 7.80768L8.80752 8.18854C8.80752 8.18854 9.42643 7.23639 8.83133 5.37967C8.83133 5.37967 8.16481 3.45155 6.42712 2.49939L6.59375 2.26135Z" fill="white"/>
<path d="M5.49868 2.61841C5.49868 2.61841 3.85621 4.57034 3.76099 7.49823C3.76099 7.49823 3.76099 8.37897 3.92762 9.18831C3.92762 9.18831 4.07044 9.83102 3.73719 9.95004C3.73719 9.95004 3.59436 9.99764 3.54675 9.7596C3.54675 9.7596 3.2135 8.78364 3.35632 7.23638C3.35632 7.23638 3.47534 4.42751 5.35586 2.547L5.49868 2.61841Z" fill="white"/>
<path d="M6.64125 2.18995C6.64125 2.18995 6.61745 1.61865 5.7129 1.61865C5.7129 1.61865 5.04639 1.66626 5.04639 2.14234C5.04639 2.14234 5.07019 2.73744 5.92713 2.76124C5.92713 2.76124 6.66506 2.73744 6.64125 2.18995Z" fill="white"/>
<path d="M6.54609 0.5C6.73652 0.523804 9.71202 1.0713 10.1881 4.61809C10.1881 4.61809 10.4499 6.64143 9.21214 8.11727C9.21214 8.11727 7.95053 9.85497 5.71295 9.97399C5.71295 9.97399 7.95053 9.75975 9.33116 7.30794C9.33116 7.30794 10.0453 6.04633 9.78343 4.30864C9.80724 4.33244 9.42637 1.49977 6.54609 0.5Z" fill="white"/>
<path d="M6.47461 1.83284C6.47461 1.83284 7.30775 1.76143 8.28371 2.09469C8.28371 2.09469 8.97403 2.35653 9.21207 2.88022C9.21207 2.88022 9.23587 2.95163 9.18826 2.90402C9.18826 2.90402 8.73599 2.35653 7.80763 2.14229C7.80763 2.14229 7.11732 1.99947 6.61743 2.07088L6.47461 1.83284Z" fill="white"/>
<path d="M15.0203 23.7802V21.9711L14.3776 23.2803H14.0919L13.4492 21.9711V23.7802H13.0446V21.0665H13.4492L14.2348 22.7566L15.0203 21.0665H15.425V23.7802H15.0203Z" fill="white"/>
<path d="M17.8529 23.7802L17.6625 23.2327H16.5913L16.4009 23.7802H15.9724L16.9722 21.0665H17.3054L18.3052 23.7802H17.8529ZM17.1388 21.6854L16.7103 22.8756H17.5435L17.1388 21.6854Z" fill="white"/>
<path d="M20.4475 23.7802L19.6858 22.4472L19.2335 22.9947V23.7802H18.8289V21.0665H19.2335V22.4234L20.3523 21.0665H20.8522L19.9714 22.1377L20.9474 23.7802H20.4475Z" fill="white"/>
<path d="M21.8997 21.0665H21.495V23.7802H21.8997V21.0665Z" fill="white"/>
<path d="M24.4466 23.7802L23.185 21.8759V23.7802H22.7803V21.0665H23.1612L24.399 22.9708V21.0665H24.8037V23.7802H24.4466Z" fill="white"/>
<path d="M27.3031 23.4945C27.1127 23.7088 26.8508 23.804 26.5652 23.804C26.2795 23.804 26.0415 23.7088 25.8749 23.5421C25.613 23.2803 25.613 22.9947 25.613 22.4472C25.613 21.8759 25.613 21.614 25.8749 21.3522C26.0415 21.1855 26.2795 21.0903 26.5652 21.0903C27.1365 21.0903 27.4697 21.4712 27.5412 21.9235H27.1365C27.0651 21.6378 26.8746 21.4474 26.5652 21.4474C26.3986 21.4474 26.2557 21.5188 26.1605 21.614C26.0177 21.7568 25.9939 21.9235 25.9939 22.4472C25.9939 22.9947 26.0177 23.1375 26.1605 23.2803C26.2557 23.3755 26.3986 23.4469 26.5652 23.4469C26.7556 23.4469 26.8985 23.3755 27.0175 23.2565C27.1127 23.1375 27.1603 22.9947 27.1603 22.828V22.6852H26.589V22.3281H27.5888V22.7328C27.5412 23.0899 27.4697 23.3041 27.3031 23.4945Z" fill="white"/>
<path d="M31.2546 23.7802L31.0642 23.2327H29.993L29.8026 23.7802H29.3741L30.3739 21.0665H30.7071L31.7069 23.7802H31.2546ZM30.5405 21.6854L30.112 22.8756H30.9451L30.5405 21.6854Z" fill="white"/>
<path d="M35.2537 23.4469C35.0633 23.685 34.8252 23.7802 34.492 23.7802H33.5398V21.0665H34.492C34.8252 21.0665 35.0633 21.1617 35.2537 21.3998C35.4441 21.6378 35.4679 21.9711 35.4679 22.4234C35.4679 22.8518 35.4441 23.1851 35.2537 23.4469ZM34.8966 21.614C34.7776 21.4712 34.6348 21.4236 34.4443 21.4236H33.9445V23.3993H34.4443C34.6348 23.3993 34.8014 23.3517 34.8966 23.2089C35.0394 23.0661 35.0394 22.8042 35.0394 22.3996C35.0394 22.0187 35.0394 21.7806 34.8966 21.614Z" fill="white"/>
<path d="M36.6342 21.0665H36.2296V23.7802H36.6342V21.0665Z" fill="white"/>
<path d="M37.9197 21.4474V22.2567H39.0385V22.6376H37.9197V23.7802H37.515V21.0665H39.2527V21.4474H37.9197Z" fill="white"/>
<path d="M40.3001 21.4474V22.2567H41.4426V22.6376H40.3001V23.7802H39.8954V21.0665H41.6331V21.4474H40.3001Z" fill="white"/>
<path d="M42.2996 23.7802V21.0665H44.0135V21.4474H42.7043V22.2329H43.8231V22.59H42.7043V23.4231H44.0135V23.7802H42.2996Z" fill="white"/>
<path d="M46.2274 23.7802L45.6561 22.6376H45.1324V23.7802H44.7515V21.0665H45.7989C46.3226 21.0665 46.632 21.3998 46.632 21.8521C46.632 22.2329 46.394 22.4948 46.0846 22.5662L46.7035 23.7564H46.2274V23.7802ZM45.7751 21.4474H45.1562V22.3043H45.7751C46.0369 22.3043 46.2274 22.1377 46.2274 21.8759C46.2274 21.614 46.0369 21.4474 45.7751 21.4474Z" fill="white"/>
<path d="M47.3936 23.7802V21.0665H49.1313V21.4474H47.7983V22.2329H48.9409V22.59H47.7983V23.4231H49.1313V23.7802H47.3936Z" fill="white"/>
<path d="M51.5118 23.7802L50.274 21.8759V23.7802H49.8455V21.0665H50.2264L51.488 22.9708V21.0665H51.8927V23.7802H51.5118Z" fill="white"/>
<path d="M53.6303 23.804C53.3447 23.804 53.1066 23.7088 52.94 23.5421C52.6782 23.2803 52.6782 22.9947 52.6782 22.4472C52.6782 21.8759 52.6782 21.614 52.94 21.3522C53.1066 21.1855 53.3447 21.0665 53.6303 21.0665C54.1302 21.0665 54.5111 21.3522 54.6063 21.8997H54.1778C54.1064 21.614 53.9398 21.4236 53.6303 21.4236C53.4637 21.4236 53.3209 21.495 53.2257 21.5902C53.0828 21.733 53.059 21.8997 53.059 22.4234C53.059 22.947 53.0828 23.1137 53.2257 23.2565C53.3209 23.3517 53.4637 23.4231 53.6303 23.4231C53.9398 23.4231 54.1302 23.2327 54.1778 22.947H54.5825C54.5111 23.5183 54.1302 23.804 53.6303 23.804Z" fill="white"/>
<path d="M55.3204 23.7802V21.0665H57.0343V21.4474H55.7251V22.2329H56.8439V22.59H55.7251V23.4231H57.0343V23.7802H55.3204Z" fill="white"/>
<path d="M60.581 23.7802L60.3906 23.2327H59.3194L59.129 23.7802H58.7005L59.7003 21.0665H60.0335L61.0333 23.7802H60.581ZM59.8907 21.6854L59.4622 22.8756H60.2954L59.8907 21.6854Z" fill="white"/>
<path d="M63.0805 23.7802L62.5092 22.6376H61.9855V23.7802H61.5809V21.0665H62.6282C63.1519 21.0665 63.4614 21.3998 63.4614 21.8521C63.4614 22.2329 63.2233 22.4948 62.9139 22.5662L63.5328 23.7564H63.0805V23.7802ZM62.6044 21.4474H61.9855V22.3043H62.6044C62.8663 22.3043 63.0567 22.1377 63.0567 21.8759C63.0567 21.614 62.8663 21.4474 62.6044 21.4474Z" fill="white"/>
<path d="M65.7942 23.5421C65.6276 23.7088 65.3895 23.804 65.1039 23.804C64.8182 23.804 64.5802 23.7088 64.4136 23.5421C64.1517 23.2803 64.1517 22.9947 64.1517 22.4472C64.1517 21.8759 64.1517 21.614 64.4136 21.3522C64.5802 21.1855 64.8182 21.0665 65.1039 21.0665C65.3895 21.0665 65.6276 21.1617 65.7942 21.3522C66.0561 21.614 66.0561 21.8997 66.0561 22.4472C66.0799 22.9947 66.0799 23.2565 65.7942 23.5421ZM65.5086 21.5902C65.4133 21.495 65.2705 21.4236 65.1039 21.4236C64.9373 21.4236 64.7944 21.495 64.6992 21.5902C64.5564 21.733 64.5326 21.8997 64.5326 22.4234C64.5326 22.9708 64.5564 23.1137 64.6992 23.2565C64.7944 23.3517 64.9373 23.4231 65.1039 23.4231C65.2705 23.4231 65.4133 23.3517 65.5086 23.2565C65.6514 23.1137 65.6752 22.947 65.6752 22.4234C65.6752 21.8997 65.6514 21.733 65.5086 21.5902Z" fill="white"/>
<path d="M67.7698 23.804C67.2224 23.804 66.7939 23.4231 66.7939 22.8756V21.0903H67.1985V22.8518C67.1985 23.2089 67.4128 23.4469 67.746 23.4469C68.0793 23.4469 68.3173 23.2327 68.3173 22.8518V21.0665H68.722V22.8518C68.7458 23.4231 68.3173 23.804 67.7698 23.804Z" fill="white"/>
<path d="M71.2453 23.7802L69.9837 21.8759V23.7802H69.579V21.0665H69.9598L71.1977 22.9708V21.0665H71.6261V23.7802H71.2453Z" fill="white"/>
<path d="M74.197 23.4469C74.0066 23.685 73.7686 23.7802 73.4353 23.7802H72.4832V21.0665H73.4353C73.7686 21.0665 74.0066 21.1617 74.197 21.3998C74.3875 21.6378 74.4113 21.9711 74.4113 22.4234C74.4113 22.8518 74.4113 23.1851 74.197 23.4469ZM73.8638 21.614C73.7448 21.4712 73.6019 21.4236 73.3877 21.4236H72.8878V23.3993H73.3877C73.5781 23.3993 73.7448 23.3517 73.8638 23.2089C74.0066 23.0661 74.0066 22.8042 74.0066 22.3996C74.0066 22.0187 73.9828 21.7806 73.8638 21.614Z" fill="white"/>
<path d="M77.3629 21.4474V23.7802H76.9582V21.4474H76.1965V21.0665H78.1008V21.4474H77.3629Z" fill="white"/>
<path d="M80.2432 23.7802V22.59H79.1483V23.7802H78.7436V21.0665H79.1483V22.2329H80.2432V21.0665H80.6717V23.7802H80.2432Z" fill="white"/>
<path d="M81.5287 23.7802V21.0665H83.2664V21.4474H81.9334V22.2329H83.0759V22.59H81.9334V23.4231H83.2664V23.7802H81.5287Z" fill="white"/>
<path d="M87.4558 23.7802H87.0987L86.5512 21.8759L86.0037 23.7802H85.6467L84.9326 21.0665H85.3848L85.8371 23.0185L86.3846 21.0665H86.7179L87.2654 23.0185L87.7414 21.0665H88.1699L87.4558 23.7802Z" fill="white"/>
<path d="M90.3123 23.5421C90.1456 23.7088 89.9076 23.804 89.622 23.804C89.3363 23.804 89.0983 23.7088 88.9316 23.5421C88.6698 23.2803 88.646 22.9947 88.646 22.4472C88.646 21.8759 88.646 21.614 88.9316 21.3522C89.0983 21.1855 89.3363 21.0665 89.622 21.0665C89.9076 21.0665 90.1456 21.1617 90.3123 21.3522C90.5741 21.614 90.5741 21.8997 90.5741 22.4472C90.5741 22.9947 90.5741 23.2565 90.3123 23.5421ZM90.0028 21.5902C89.9076 21.495 89.7648 21.4236 89.5982 21.4236C89.4315 21.4236 89.2887 21.495 89.1935 21.5902C89.0507 21.733 89.0269 21.8997 89.0269 22.4234C89.0269 22.9708 89.0507 23.1137 89.1935 23.2565C89.2887 23.3517 89.4315 23.4231 89.5982 23.4231C89.7648 23.4231 89.9076 23.3517 90.0028 23.2565C90.1456 23.1137 90.1694 22.947 90.1694 22.4234C90.1694 21.8997 90.1456 21.733 90.0028 21.5902Z" fill="white"/>
<path d="M92.8355 23.7802L92.2642 22.6376H91.7405V23.7802H91.3359V21.0665H92.3833C92.9069 21.0665 93.2164 21.3998 93.2164 21.8521C93.2164 22.2329 92.9783 22.4948 92.6689 22.5662L93.2878 23.7564H92.8355V23.7802ZM92.3594 21.4474H91.7405V22.3043H92.3594C92.6213 22.3043 92.8117 22.1377 92.8117 21.8759C92.8355 21.614 92.6451 21.4474 92.3594 21.4474Z" fill="white"/>
<path d="M94.002 23.7802V21.0665H94.4066V23.4231H95.7158V23.7802H94.002Z" fill="white"/>
<path d="M98.0723 23.4469C97.8819 23.685 97.6439 23.7802 97.3106 23.7802H96.3585V21.0665H97.3106C97.6439 21.0665 97.8819 21.1617 98.0723 21.3998C98.2628 21.6378 98.2866 21.9711 98.2866 22.4234C98.2628 22.8518 98.2628 23.1851 98.0723 23.4469ZM97.7153 21.614C97.5963 21.4712 97.4534 21.4236 97.263 21.4236H96.7631V23.3993H97.263C97.4534 23.3993 97.6201 23.3517 97.7153 23.2089C97.8581 23.0661 97.8581 22.8042 97.8581 22.3996C97.8581 22.0187 97.8581 21.7806 97.7153 21.614Z" fill="white"/>
</g>
<defs>
<clipPath id="clip0_96_5288">
<rect width="101.833" height="23.804" fill="white"/>
</clipPath>
</defs>
</svg>
