<svg width="51" height="51" viewBox="0 0 51 51" fill="none" xmlns="http://www.w3.org/2000/svg">
<g clip-path="url(#clip0_365_4490)">
<path fill-rule="evenodd" clip-rule="evenodd" d="M6.47913 33.885H8.70782V42.8758H6.47913V33.885ZM11.9423 38.4573L9.80981 38.2078C9.89132 37.7923 10.0081 37.4652 10.1598 37.227C10.3112 36.9888 10.5287 36.7824 10.8116 36.6067C11.0164 36.4808 11.2983 36.3827 11.6564 36.3135C12.0385 36.2423 12.4264 36.2075 12.815 36.2097C13.4868 36.2097 14.0248 36.2517 14.4281 36.3356C14.8315 36.4198 15.1686 36.5944 15.4391 36.8605C15.6316 37.0448 15.782 37.3056 15.8906 37.6432C15.9992 37.9811 16.0536 38.3037 16.0536 38.6103V41.4893C16.0536 41.7959 16.0707 42.0367 16.1057 42.2103C16.1404 42.3843 16.2169 42.6063 16.3358 42.8763H14.2443C14.1628 42.7099 14.1084 42.5836 14.0821 42.4958C14.0553 42.4091 14.0298 42.2718 14.0056 42.0851C13.7145 42.4004 13.4229 42.6255 13.1318 42.7603C12.7379 42.9402 12.2807 43.0299 11.7598 43.0299C11.0622 43.0299 10.5342 42.8495 10.1753 42.4879C9.81638 42.1269 9.63706 41.6812 9.63706 41.1517C9.63706 40.6544 9.76616 40.2464 10.0246 39.9258C10.2831 39.6053 10.7609 39.3676 11.4587 39.2114C12.2996 39.0224 12.8442 38.8898 13.0924 38.8139C13.3617 38.7303 13.6258 38.6305 13.883 38.5149C13.883 38.2093 13.8252 37.995 13.7103 37.8725C13.5954 37.7503 13.3963 37.6893 13.1129 37.6893C12.7471 37.6893 12.4721 37.7545 12.2875 37.8844C12.1437 37.9858 12.0288 38.1767 11.9423 38.4573ZM13.8828 39.7639C13.568 39.891 13.2468 40.0014 12.9204 40.0946C12.4639 40.2316 12.1758 40.3668 12.0566 40.4993C11.9291 40.6368 11.8655 40.7925 11.8655 40.9671C11.8655 41.1664 11.927 41.3297 12.0503 41.4564C12.1737 41.5832 12.3548 41.6465 12.5933 41.6465C12.8444 41.6465 13.0766 41.5782 13.2904 41.4412C13.5039 41.3036 13.6561 41.1367 13.7468 40.9389C13.8373 40.7417 13.8828 40.4848 13.8828 40.1691V39.7639ZM17.2574 45.3543V36.3635H19.3457V37.3177C19.633 36.9136 19.8986 36.6398 20.1411 36.4971C20.4658 36.3054 20.8258 36.2094 21.2202 36.2094C22.0008 36.2094 22.6053 36.5436 23.0326 37.2115C23.4599 37.8794 23.6742 38.7045 23.6742 39.6873C23.6742 40.773 23.4418 41.6013 22.9771 42.1729C22.5125 42.7446 21.9248 43.0296 21.2136 43.0296C20.8683 43.0296 20.5536 42.9644 20.2699 42.834C19.9862 42.703 19.7314 42.509 19.5053 42.2516V45.3545L17.2574 45.3543ZM19.4929 39.6342C19.4929 40.1535 19.5899 40.5385 19.7842 40.7893C19.9786 41.0404 20.2241 41.1664 20.5221 41.1664C20.7863 41.1664 21.0064 41.0457 21.182 40.8054C21.3574 40.5645 21.4455 40.1556 21.4455 39.579C21.4455 39.0479 21.3532 38.6577 21.1697 38.4087C20.9856 38.1597 20.7613 38.0348 20.4968 38.0348C20.2073 38.0348 19.9678 38.1607 19.7779 38.4118C19.5881 38.6627 19.4929 39.0705 19.4929 39.6342ZM30.9553 40.244H26.4787C26.5203 40.6471 26.6173 40.9471 26.7714 41.1443C26.9912 41.4278 27.2747 41.5695 27.6233 41.5695C27.8473 41.5695 28.0588 41.5085 28.2581 41.3852C28.3782 41.3081 28.5086 41.1711 28.6493 40.9744L30.8396 41.205C30.5028 41.8563 30.096 42.3231 29.6198 42.606C29.1437 42.8884 28.4597 43.0296 27.5686 43.0296C26.7966 43.0296 26.1887 42.9079 25.7449 42.6638C25.3013 42.4204 24.9347 42.0333 24.6455 41.5032C24.356 40.9726 24.2114 40.3486 24.2114 39.6319C24.2114 38.6119 24.5025 37.7865 25.0846 37.156C25.667 36.5255 26.4735 36.2094 27.5032 36.2094C28.3356 36.2094 28.9925 36.3511 29.4747 36.6341C29.9569 36.9165 30.324 37.3269 30.5762 37.8641C30.8278 38.4013 30.9545 39.1002 30.9545 39.9611V40.244H30.9553ZM28.688 39.0529C28.6427 38.5654 28.5268 38.2157 28.3393 38.0053C28.1518 37.795 27.9044 37.689 27.5957 37.689C27.2384 37.689 26.9544 37.8478 26.7443 38.166C26.6086 38.3647 26.5219 38.66 26.4856 39.0529H28.688ZM31.339 41.0702L33.5482 40.8396C33.6386 41.1354 33.767 41.3476 33.9339 41.4748C34.1009 41.6016 34.3207 41.6655 34.5923 41.6655C34.8968 41.6655 35.1321 41.5942 35.297 41.4509C35.4243 41.3447 35.4887 41.2121 35.4887 41.0523C35.4887 40.8719 35.404 40.7328 35.2344 40.6347C35.1106 40.5653 34.7903 40.4791 34.2742 40.377C33.4998 40.2261 32.9621 40.0854 32.661 39.9563C32.36 39.827 32.106 39.6087 31.899 39.3016C31.6921 38.994 31.5887 38.6437 31.5887 38.2504C31.5887 37.8199 31.7008 37.4492 31.9235 37.1381C32.147 36.8263 32.4546 36.5938 32.8459 36.4403C33.2377 36.2867 33.7614 36.2097 34.418 36.2097C35.1108 36.2097 35.6233 36.2699 35.9552 36.3885C36.2875 36.5076 36.5641 36.6919 36.7855 36.9425C37.0069 37.1926 37.1897 37.531 37.333 37.9577L35.2197 38.1883C35.1663 37.9809 35.0759 37.8283 34.9486 37.7308C34.7719 37.6004 34.5584 37.5352 34.3081 37.5352C34.057 37.5352 33.8742 37.5854 33.7596 37.6856C33.6442 37.7863 33.5871 37.908 33.5871 38.0513C33.5871 38.2109 33.6581 38.3316 33.8011 38.4129C33.9486 38.4949 34.266 38.5685 34.7533 38.6343C35.4947 38.7281 36.0469 38.8591 36.4095 39.0266C36.7721 39.1946 37.049 39.4333 37.2394 39.7441C37.4297 40.0549 37.5249 40.396 37.5249 40.7683C37.5249 41.1443 37.4237 41.5098 37.221 41.8653C37.0182 42.2208 36.6977 42.5042 36.2612 42.7146C35.8253 42.9247 35.2315 43.0299 34.4811 43.0299C33.4154 43.0299 32.6568 42.8603 32.2061 42.5203C31.7555 42.1803 31.4657 41.6967 31.339 41.0702ZM40.3923 38.4573L38.2601 38.2078C38.3419 37.7923 38.4584 37.4652 38.6098 37.227C38.7618 36.9888 38.979 36.7824 39.2616 36.6067C39.4665 36.4808 39.7486 36.3827 40.107 36.3135C40.4888 36.2423 40.8766 36.2075 41.265 36.2097C41.9368 36.2097 42.4751 36.2517 42.8787 36.3356C43.2818 36.4198 43.6191 36.5944 43.8894 36.8605C44.0819 37.0448 44.2326 37.3056 44.3409 37.6432C44.4497 37.9811 44.5042 38.3037 44.5042 38.6103V41.4893C44.5042 41.7959 44.521 42.0367 44.556 42.2103C44.5909 42.3843 44.6675 42.6063 44.7861 42.8763H42.6949C42.6131 42.7099 42.5587 42.5836 42.5326 42.4958C42.5058 42.4091 42.4803 42.2718 42.4556 42.0851C42.1645 42.4004 41.8732 42.6255 41.5821 42.7603C41.1882 42.9402 40.7312 43.0299 40.2103 43.0299C39.5125 43.0299 38.9845 42.8495 38.6256 42.4879C38.2667 42.1269 38.0873 41.6812 38.0873 41.1517C38.0873 40.6544 38.2162 40.2464 38.4752 39.9258C38.7334 39.6053 39.2117 39.3676 39.909 39.2114C40.7496 39.0224 41.2947 38.8898 41.5427 38.8139C41.812 38.7303 42.0759 38.6305 42.3331 38.5149C42.3331 38.2093 42.2755 37.995 42.1606 37.8725C42.0459 37.7503 41.8469 37.6893 41.5634 37.6893C41.1977 37.6893 40.9229 37.7545 40.7381 37.8844C40.5937 37.9858 40.4785 38.1767 40.3923 38.4573ZM42.3325 39.7639C42.0178 39.8911 41.6966 40.0015 41.3702 40.0946C40.9137 40.2316 40.626 40.3668 40.5069 40.4993C40.3791 40.6368 40.3158 40.7925 40.3158 40.9671C40.3158 41.1664 40.3768 41.3297 40.5006 41.4564C40.6239 41.5832 40.8046 41.6465 41.0433 41.6465C41.2944 41.6465 41.5266 41.5782 41.7401 41.4412C41.9536 41.3036 42.1064 41.1367 42.1966 40.9389C42.2871 40.7417 42.3323 40.4848 42.3323 40.1691V39.7639H42.3325Z" fill="white"/>
<path fill-rule="evenodd" clip-rule="evenodd" d="M48.4475 19.7011C48.4475 27.6382 38.1034 34.0724 25.3415 34.0724C12.581 34.0724 2.23578 27.638 2.23578 19.7011C2.23578 11.7637 12.5807 5.32922 25.3415 5.32922C38.1034 5.32922 48.4475 11.7637 48.4475 19.7011Z" fill="white"/>
<path fill-rule="evenodd" clip-rule="evenodd" d="M7.35522 24.6252L14.177 10.2626H21.5885L17.2818 19.9283H18.8345C18.8345 19.9283 21.4881 10.4629 34.5092 10.6131C34.5092 10.6131 42.9633 10.2989 42.9731 15.7215C42.9731 15.7215 42.575 25.6723 24.2584 24.6252L21.5954 29.8352H13.7229L16.5017 24.6252H7.35522Z" fill="#276286"/>
<path fill-rule="evenodd" clip-rule="evenodd" d="M25.9358 19.8954C25.9358 19.8954 27.0564 15.1485 32.7788 15.3426C32.7788 15.3426 35.856 15.4585 35.4195 17.3015C34.9831 19.1445 31.9006 20.2351 25.9358 19.8954Z" fill="white"/>
</g>
<defs>
<clipPath id="clip0_365_4490">
<rect width="50.6836" height="50.6836" fill="white"/>
</clipPath>
</defs>
</svg>
