<svg width="97" height="31" viewBox="0 0 97 31" fill="none" xmlns="http://www.w3.org/2000/svg">
<g clip-path="url(#clip0_96_5260)">
<path d="M6.88724 1.37207C5.00028 2.37145 3.07605 3.36744 1.46688 5.04097C-0.0304927 6.56884 -0.420081 9.174 0.481054 11.1389C1.44959 13.0518 2.70644 14.8046 4.20755 16.3356C3.20115 11.1882 4.15704 5.8504 6.88724 1.37207Z" fill="white"/>
<path d="M5.31876 17.3316C7.17184 18.5071 9.02493 19.6488 11.1795 20.1468C13.5306 20.6821 15.7055 19.7199 17.0945 17.8296C18.176 16.0461 19.021 14.1295 19.6082 12.1281C15.6551 15.5745 10.5624 17.4291 5.31876 17.3316Z" fill="white"/>
<path d="M19.249 2.97436C18.7998 2.15183 18.1557 1.45207 17.3731 0.936441C16.5905 0.420811 15.6933 0.105061 14.7603 0.0168801C12.6504 -0.063846 10.5396 0.151679 8.48962 0.65716C13.1206 2.1647 17.7584 6.00299 20.1061 10.4578C20.2111 7.89334 20.3263 5.14928 19.249 2.97436Z" fill="white"/>
<path d="M95.676 28.4738C95.9574 27.7011 96.0795 26.8795 96.0351 26.0584V10.4748H90.6995V25.9364C90.7017 26.0832 90.675 26.229 90.6209 26.3655C90.5668 26.502 90.4863 26.6265 90.384 26.7319C90.2818 26.8373 90.1598 26.9215 90.025 26.9797C89.8902 27.038 89.7453 27.0691 89.5985 27.0713H89.4833C89.1933 27.0909 88.9074 26.995 88.6878 26.8046C88.4682 26.6143 88.3328 26.3448 88.3111 26.055V10.4714H82.9992V26.055C82.9478 26.8758 83.0631 27.6986 83.3379 28.4738C83.5557 28.9375 83.8728 29.3475 84.2669 29.6748C84.6609 30.0021 85.1222 30.2386 85.6179 30.3675C86.0947 30.4569 86.5794 30.4977 87.0644 30.4895H91.9394C92.4264 30.4987 92.9132 30.4601 93.3927 30.3743C93.8902 30.2462 94.353 30.0092 94.7479 29.6806C95.1427 29.3519 95.4597 28.9398 95.676 28.4738Z" fill="white"/>
<path d="M70.5189 10.4646C68.7946 10.4646 67.5919 11.9552 67.6055 13.7371V30.4894H73.0258V22.1726H75.2346V30.4894H80.6279V10.4646H70.5189ZM75.2279 18.7374H73.0292V14.6722C73.0292 13.9302 73.307 13.6558 73.9812 13.6558H75.2279V18.7374Z" fill="white"/>
<path d="M59.79 10.4646V18.7374H57.4186V10.4646H51.9745V30.4894H57.4288V22.1726H59.7663V30.4894H65.2273V10.4646H59.79Z" fill="white"/>
<path d="M45.9241 14.3402H49.6235V10.4646H40.4563V30.4894H49.6302V26.6105H45.9037V22.1726H49.0645V18.7374H45.9037L45.9241 14.3402Z" fill="white"/>
<path d="M35.3746 20.3466C36.1275 20.2073 36.8089 19.8116 37.3029 19.2268C37.797 18.6419 38.0733 17.904 38.0848 17.1384V13.7507C38.0543 11.9383 36.7297 10.4781 35.2865 10.4781H24.9675V30.4894H30.3438V22.1726H31.6989C32.3765 22.1726 32.6441 22.4876 32.6441 23.2126V30.4894H38.0848V23.6022C38.0848 21.8338 36.6586 20.4956 35.3746 20.3466ZM32.6204 17.7482C32.6407 18.3512 32.3866 18.7103 31.9429 18.7645H30.3371V13.6829H31.6922C32.3697 13.6829 32.6475 14.0217 32.6373 14.6993L32.6204 17.7482Z" fill="white"/>
</g>
<defs>
<clipPath id="clip0_96_5260">
<rect width="96.0453" height="30.4963" fill="white"/>
</clipPath>
</defs>
</svg>
