<svg width="91" height="28" viewBox="0 0 91 28" fill="none" xmlns="http://www.w3.org/2000/svg">
<g clip-path="url(#clip0_96_5272)">
<path d="M90.5851 19.7439H9.15527e-05V26.8786H90.5851V19.7439Z" fill="white"/>
<path d="M72.0024 20.7524V15.0185C73.991 16.5157 75.977 17.0403 77.6888 16.8921C78.7318 16.8031 79.3782 16.3821 79.3782 15.4827C79.3782 13.0207 72.0024 12.9205 72.0024 6.26314C72.0024 3.5632 73.81 0.0333252 79.1796 0.0333252C81.6204 0.0333252 83.8991 0.998438 86.0008 2.51057L85.9518 8.25089C83.9114 6.22017 82.4848 5.75529 80.9089 5.75529C79.7116 5.75529 79.518 6.04313 79.518 7.00869C79.518 9.77041 87.1552 9.5251 87.1552 15.9839C87.1552 19.0314 84.221 22.303 78.8088 22.303C76.2223 22.303 74.0819 21.7016 72.0024 20.7524Z" fill="white"/>
<path d="M52.3825 21.9306H44.9224V0.5177H51.9282L57.8456 8.74601L64.0324 0.5177H70.696L70.6946 21.9306H63.194V11.7213L57.8359 18.1791L52.3825 11.922" fill="white"/>
<path d="M16.9263 0.55813C22.4544 0.55813 24.8242 3.32209 24.8242 6.71767C24.8242 9.00847 23.715 10.6585 21.5245 11.603C22.9938 12.2219 23.7747 13.6451 24.8849 16.1584L27.0779 21.2026V0.516724H43.4235V5.56298H35.4651V8.60805L43.2411 8.60828V13.7152H35.4651V16.8737H43.7917L43.7926 21.9012H19.5414L17.997 18.2218C16.8717 15.79 16.0579 12.8524 12.8597 12.8524L12.797 12.9911V21.9012H4.97943V0.55813H16.9263ZM12.7997 4.28496V9.41201H14.3376C15.6745 9.42567 16.6877 8.14743 16.6877 6.71722C16.6877 5.28835 15.533 4.27691 14.281 4.2834L12.7997 4.28496Z" fill="white"/>
</g>
<defs>
<clipPath id="clip0_96_5272">
<rect width="90.6472" height="27.0823" fill="white"/>
</clipPath>
</defs>
</svg>
