<svg width="93" height="29" viewBox="0 0 93 29" fill="none" xmlns="http://www.w3.org/2000/svg">
<g clip-path="url(#clip0_96_5279)">
<path fill-rule="evenodd" clip-rule="evenodd" d="M23.5552 6.00012C19.5801 6.00012 16.3599 9.22299 16.3599 13.1972V15.7718H16.3581V26.9659C16.3581 27.8503 17.0759 28.5664 17.9568 28.5664H19.5545C20.4397 28.5664 21.1567 27.8503 21.1567 26.9659V23.3582C21.9063 23.6242 22.7122 23.7677 23.5543 23.7677C27.5302 23.7677 30.7513 20.5458 30.7513 16.5716V13.1972C30.7522 9.22299 27.5311 6.00012 23.5552 6.00012ZM25.9545 18.1711C25.9545 19.4958 24.879 20.5695 23.5552 20.5695C22.2304 20.5695 21.1576 19.4958 21.1576 18.1711V11.5994C21.1576 10.2738 22.2304 9.19833 23.5552 9.19833C24.879 9.19833 25.9545 10.2738 25.9545 11.5994V18.1711Z" fill="white"/>
<path fill-rule="evenodd" clip-rule="evenodd" d="M12.7911 6H11.1924C10.309 6 9.59462 6.7161 9.59462 7.59954V18.171C9.59462 19.4957 8.52004 20.5694 7.19442 20.5694C5.87057 20.5694 4.79599 19.4957 4.79599 18.171V7.59954C4.79599 6.7161 4.08077 6 3.19733 6H1.59866C0.716095 6 0 6.7161 0 7.59954V16.5714C0 20.5456 3.22111 23.7676 7.19442 23.7676C11.1686 23.7676 14.3906 20.5456 14.3906 16.5714V7.59954C14.3906 6.7161 13.6736 6 12.7911 6Z" fill="white"/>
<path fill-rule="evenodd" clip-rule="evenodd" d="M89.7982 6.00012H88.9975C85.0224 6.00012 81.8031 9.22299 81.8031 13.1972V22.1691C81.8031 23.0516 82.5165 23.7677 83.4009 23.7677H85.0004C85.8821 23.7677 86.5964 23.0516 86.5964 22.1691V11.5994C86.5964 10.2738 87.6719 9.19833 88.9975 9.19833H89.7982C90.6807 9.19833 91.396 8.48311 91.396 7.59967C91.396 6.71622 90.6807 6.00012 89.7982 6.00012Z" fill="white"/>
<path fill-rule="evenodd" clip-rule="evenodd" d="M72.6373 6.00012C68.664 6.00012 65.4402 9.22299 65.4402 13.1972V16.5716C65.4402 20.5458 68.664 23.7677 72.6373 23.7677C76.6106 23.7677 79.8344 20.5458 79.8344 16.5716V13.1972C79.8344 9.22299 76.6106 6.00012 72.6373 6.00012ZM75.034 18.1711C75.034 19.4958 73.9612 20.5695 72.6364 20.5695C71.3108 20.5695 70.2371 19.4958 70.2371 18.1711V11.5994C70.2371 10.2738 71.3108 9.19833 72.6364 9.19833C73.9612 9.19833 75.034 10.2738 75.034 11.5994V18.1711Z" fill="white"/>
<path fill-rule="evenodd" clip-rule="evenodd" d="M56.2766 6.00012C52.3015 6.00012 49.0804 9.22299 49.0804 13.1972V22.1691C49.0804 23.0516 49.7965 23.7677 50.6808 23.7677H52.2786C53.1621 23.7677 53.8782 23.0516 53.8782 22.1691V11.5994C53.8782 10.2738 54.9519 9.19833 56.2757 9.19833C57.6004 9.19833 58.6759 10.2738 58.6759 11.5994V22.1691C58.6759 23.0516 59.392 23.7677 60.2737 23.7677H61.8724C62.7585 23.7677 63.4728 23.0516 63.4728 22.1691V13.1972C63.4737 9.22299 60.2517 6.00012 56.2766 6.00012Z" fill="white"/>
<path fill-rule="evenodd" clip-rule="evenodd" d="M39.9153 6.00012C35.942 6.00012 32.7209 9.22299 32.7209 13.1972V16.5716C32.7209 20.5458 35.942 23.7677 39.9153 23.7677C43.8913 23.7677 47.1124 20.5458 47.1124 16.5716V13.1972C47.1124 9.22299 43.8913 6.00012 39.9153 6.00012ZM42.3147 18.1711C42.3147 19.4958 41.2401 20.5695 39.9153 20.5695C38.5915 20.5695 37.516 19.4958 37.516 18.1711V11.5994C37.516 10.2738 38.5915 9.19833 39.9153 9.19833C41.2401 9.19833 42.3147 10.2738 42.3147 11.5994V18.1711Z" fill="white"/>
</g>
<defs>
<clipPath id="clip0_96_5279">
<rect width="92.4846" height="28.5663" fill="white"/>
</clipPath>
</defs>
</svg>
