<svg width="20" height="20" viewBox="0 0 20 20" fill="none" xmlns="http://www.w3.org/2000/svg">
<path d="M11.6667 15.0002V5.00016C11.6667 4.55814 11.4912 4.13421 11.1786 3.82165C10.866 3.50909 10.4421 3.3335 10.0001 3.3335H3.33341C2.89139 3.3335 2.46746 3.50909 2.1549 3.82165C1.84234 4.13421 1.66675 4.55814 1.66675 5.00016V14.1668C1.66675 14.3878 1.75455 14.5998 1.91083 14.7561C2.06711 14.9124 2.27907 15.0002 2.50008 15.0002H4.16675" stroke="#1447E6" stroke-width="1.66667" stroke-linecap="round" stroke-linejoin="round"/>
<path d="M12.5 15H7.5" stroke="#1447E6" stroke-width="1.66667" stroke-linecap="round" stroke-linejoin="round"/>
<path d="M15.8334 14.9998H17.5001C17.7211 14.9998 17.9331 14.912 18.0893 14.7558C18.2456 14.5995 18.3334 14.3875 18.3334 14.1665V11.1248C18.3331 10.9357 18.2684 10.7523 18.1501 10.6048L15.2501 6.97984C15.1721 6.88224 15.0733 6.8034 14.9608 6.74917C14.8482 6.69493 14.725 6.66668 14.6001 6.6665H11.6667" stroke="#1447E6" stroke-width="1.66667" stroke-linecap="round" stroke-linejoin="round"/>
<path d="M14.1667 16.6668C15.0871 16.6668 15.8333 15.9206 15.8333 15.0002C15.8333 14.0797 15.0871 13.3335 14.1667 13.3335C13.2462 13.3335 12.5 14.0797 12.5 15.0002C12.5 15.9206 13.2462 16.6668 14.1667 16.6668Z" stroke="#1447E6" stroke-width="1.66667" stroke-linecap="round" stroke-linejoin="round"/>
<path d="M5.83341 16.6668C6.75389 16.6668 7.50008 15.9206 7.50008 15.0002C7.50008 14.0797 6.75389 13.3335 5.83341 13.3335C4.91294 13.3335 4.16675 14.0797 4.16675 15.0002C4.16675 15.9206 4.91294 16.6668 5.83341 16.6668Z" stroke="#1447E6" stroke-width="1.66667" stroke-linecap="round" stroke-linejoin="round"/>
</svg>
